<svg width="1600" height="1000" viewBox="0 0 1600 1000" fill="none" xmlns="http://www.w3.org/2000/svg">
  <rect width="1600" height="1000" fill="#1A1F25"/>
  <rect width="1600" height="1000" fill="url(#paint0_linear)"/>
  <circle cx="1290" cy="170" r="120" fill="#F3A33E" fill-opacity="0.25"/>
  <rect x="110" y="520" width="220" height="320" rx="16" fill="#2C333C"/>
  <rect x="154" y="568" width="40" height="58" rx="6" fill="#D9D1C5"/>
  <rect x="216" y="568" width="40" height="58" rx="6" fill="#D9D1C5"/>
  <rect x="154" y="650" width="40" height="58" rx="6" fill="#D9D1C5"/>
  <rect x="216" y="650" width="40" height="58" rx="6" fill="#D9D1C5"/>
  <rect x="356" y="420" width="280" height="420" rx="18" fill="#38424D"/>
  <rect x="408" y="476" width="54" height="70" rx="8" fill="#DDD5CA"/>
  <rect x="488" y="476" width="54" height="70" rx="8" fill="#DDD5CA"/>
  <rect x="408" y="576" width="54" height="70" rx="8" fill="#DDD5CA"/>
  <rect x="488" y="576" width="54" height="70" rx="8" fill="#DDD5CA"/>
  <rect x="408" y="676" width="54" height="70" rx="8" fill="#DDD5CA"/>
  <rect x="488" y="676" width="54" height="70" rx="8" fill="#DDD5CA"/>
  <rect x="700" y="360" width="290" height="480" rx="20" fill="#2F3741"/>
  <rect x="756" y="436" width="60" height="82" rx="8" fill="#E2DACE"/>
  <rect x="846" y="436" width="60" height="82" rx="8" fill="#E2DACE"/>
  <rect x="756" y="552" width="60" height="82" rx="8" fill="#E2DACE"/>
  <rect x="846" y="552" width="60" height="82" rx="8" fill="#E2DACE"/>
  <rect x="756" y="668" width="60" height="82" rx="8" fill="#E2DACE"/>
  <rect x="846" y="668" width="60" height="82" rx="8" fill="#E2DACE"/>
  <path d="M1120 258H1260V286H1120V258Z" fill="#EFA84E"/>
  <path d="M1190 286V670" stroke="#EFA84E" stroke-width="18"/>
  <path d="M1190 356L1026 448" stroke="#EFA84E" stroke-width="14"/>
  <path d="M1190 356L1340 420" stroke="#EFA84E" stroke-width="14"/>
  <rect x="1010" y="448" width="58" height="160" rx="8" fill="#EFA84E"/>
  <path d="M1308 420H1372V440C1372 473.137 1345.14 500 1312 500H1308V420Z" fill="#EFA84E"/>
  <rect x="0" y="840" width="1600" height="160" fill="#22272E"/>
  <path d="M0 812L200 742L370 792L610 690L840 760L1020 676L1260 744L1450 700L1600 742V1000H0V812Z" fill="#2B3139"/>
  <defs>
    <linearGradient id="paint0_linear" x1="800" y1="0" x2="800" y2="1000" gradientUnits="userSpaceOnUse">
      <stop stop-color="#1C2127"/>
      <stop offset="1" stop-color="#2E353E"/>
    </linearGradient>
  </defs>
</svg>
